# xmcd
#
# Track frame offsets:
#       150
#       19565
#       31719
#       45297
#       58689
#       71060
#       85707
#       101635
#       115879
#       127665
#       139925
#       152276
#       169291
#       183549
#       192333
#       207767
#       220074
#       234314
#       246429
#       261941
#
# Disc length: 3723 seconds
#
# Revision: 1
# Processed by: cddbd v1.5.1PL0 Copyright (c) Steve Scherf et al.
# Submitted via: MusiCat 1.1
#
DISCID=0b0e8914
DTITLE=Jacinto Luis Cortez - Choro, Bossa e Samba Canção
DYEAR=1900
DGENRE=
TTITLE0=Carinhoso
TTITLE1=Águas de março
TTITLE2=Dança da solidão
TTITLE3=Onde anda você
TTITLE4=Eu sei que vou te amar
TTITLE5=Garota de ipanema
TTITLE6=Pedacinho do céu
TTITLE7=Copacabana
TTITLE8=Conversa de botequim
TTITLE9=Chega de saudade
TTITLE10=Ela disse-me assim
TTITLE11=Nervos de aço
TTITLE12=Odeon
TTITLE13=Tico tico no fubá
TTITLE14=Naquela mesa
TTITLE15=Pecado capital
TTITLE16=Água de beber
TTITLE17=Noite do meu bem
TTITLE18=Esses moços 
TTITLE19=Ronda
EXTD=\n\n
EXTT0=
EXTT1=
EXTT2=
EXTT3=
EXTT4=
EXTT5=
EXTT6=
EXTT7=
EXTT8=
EXTT9=
EXTT10=
EXTT11=
EXTT12=
EXTT13=
EXTT14=
EXTT15=
EXTT16=
EXTT17=
EXTT18=
EXTT19=
PLAYORDER=
